<svg width="1920" height="1080" viewBox="0 0 1920 1080" fill="none" xmlns="http://www.w3.org/2000/svg">
<g clip-path="url(#clip0_1008_400)">
<rect width="1920" height="1080" fill="#0E2A47"/>
<g opacity="0.35">
<mask id="mask0_1008_400" style="mask-type:luminance" maskUnits="userSpaceOnUse" x="0" y="1" width="1920" height="1079">
<path d="M1920 1.2395H0V1080H1920V1.2395Z" fill="white"/>
</mask>
<g mask="url(#mask0_1008_400)">
<path d="M-138.182 740.325L143.181 700.103" stroke="#275B6C" stroke-width="1.5"/>
<path d="M-120.062 1073.8L117.723 972.991" stroke="#275B6C" stroke-width="1.5"/>
<path d="M-191.293 1248.77L117.723 972.991" stroke="#275B6C" stroke-width="1.5"/>
<path d="M143.181 700.103L117.723 972.991" stroke="#275B6C" stroke-width="1.5"/>
<path d="M216.531 1324.78L117.723 972.991" stroke="#275B6C" stroke-width="1.5"/>
<path d="M466.274 401.498L743.092 448.386" stroke="#275B6C" stroke-width="1.5"/>
<path d="M466.274 401.498L502.746 706.094" stroke="#275B6C" stroke-width="1.5"/>
<path d="M466.274 401.498L143.181 700.103" stroke="#275B6C" stroke-width="1.5"/>
<path d="M466.274 401.498L800.786 723.508" stroke="#275B6C" stroke-width="1.5"/>
<path d="M502.747 706.094L800.786 723.508" stroke="#275B6C" stroke-width="1.5"/>
<path d="M502.747 706.094L743.092 448.386" stroke="#275B6C" stroke-width="1.5"/>
<path d="M502.746 706.094L143.181 700.103" stroke="#275B6C" stroke-width="1.5"/>
<path d="M502.747 706.094L778.005 1082.31" stroke="#275B6C" stroke-width="1.5"/>
<path d="M435.655 1338.42L117.723 972.991" stroke="#275B6C" stroke-width="1.5"/>
<path d="M743.092 448.386L800.786 723.508" stroke="#275B6C" stroke-width="1.5"/>
<path d="M743.092 448.386L1096.26 446.382" stroke="#275B6C" stroke-width="1.5"/>
<path d="M743.092 448.386L1072.25 166.155" stroke="#275B6C" stroke-width="1.5"/>
<path d="M800.786 723.508L1090.49 776.502" stroke="#275B6C" stroke-width="1.5"/>
<path d="M778.005 1082.31L1006.28 1062.07" stroke="#275B6C" stroke-width="1.5"/>
<path d="M778.005 1082.31L800.786 723.508" stroke="#275B6C" stroke-width="1.5"/>
<path d="M704.983 1273.73L1006.28 1062.07" stroke="#275B6C" stroke-width="1.5"/>
<path d="M704.983 1273.73L800.786 723.508" stroke="#275B6C" stroke-width="1.5"/>
<path d="M1075.54 -139.192L1072.25 166.155" stroke="#275B6C" stroke-width="1.5"/>
<path d="M1075.54 -139.192L1353.06 179.928" stroke="#275B6C" stroke-width="1.5"/>
<path d="M1075.54 -139.192L1096.26 446.382" stroke="#275B6C" stroke-width="1.5"/>
<path d="M1075.54 -139.192L1649.9 121.752" stroke="#275B6C" stroke-width="1.5"/>
<path d="M1072.25 166.155L1353.06 179.928" stroke="#275B6C" stroke-width="1.5"/>
<path d="M1072.25 166.155L1096.26 446.382" stroke="#275B6C" stroke-width="1.5"/>
<path d="M1096.26 446.382L1320.38 444.841" stroke="#275B6C" stroke-width="1.5"/>
<path d="M1090.49 776.502L1294.55 967.867" stroke="#275B6C" stroke-width="1.5"/>
<path d="M1090.49 776.502L1361.84 664.003" stroke="#275B6C" stroke-width="1.5"/>
<path d="M1006.28 1062.07L1090.49 776.502" stroke="#275B6C" stroke-width="1.5"/>
<path d="M1006.28 1062.07L1023.92 1360.59" stroke="#275B6C" stroke-width="1.5"/>
<path d="M1006.28 1062.07L1294.55 967.867" stroke="#275B6C" stroke-width="1.5"/>
<path d="M1280.77 -155.296L1353.06 179.928" stroke="#275B6C" stroke-width="1.5"/>
<path d="M1353.06 179.928L1320.38 444.841" stroke="#275B6C" stroke-width="1.5"/>
<path d="M1320.38 444.841L1361.84 664.003" stroke="#275B6C" stroke-width="1.5"/>
<path d="M1361.84 664.003L1595.73 684.577" stroke="#275B6C" stroke-width="1.5"/>
<path d="M1361.84 664.003L1294.55 967.867" stroke="#275B6C" stroke-width="1.5"/>
<path d="M1361.84 664.003L1096.26 446.382" stroke="#275B6C" stroke-width="1.5"/>
<path d="M1294.55 967.867L1530.76 969.774" stroke="#275B6C" stroke-width="1.5"/>
<path d="M1294.55 967.867L1305.84 1372.81" stroke="#275B6C" stroke-width="1.5"/>
<path d="M1294.55 967.867L1595.73 684.577" stroke="#275B6C" stroke-width="1.5"/>
<path d="M1305.84 1372.81L1006.28 1062.07" stroke="#275B6C" stroke-width="1.5"/>
<path d="M1305.84 1372.81L1530.76 969.774" stroke="#275B6C" stroke-width="1.5"/>
<path d="M1553.58 -181.899L1649.9 121.753" stroke="#275B6C" stroke-width="1.5"/>
<path d="M1649.9 121.752L1917.4 108.345" stroke="#275B6C" stroke-width="1.5"/>
<path d="M1649.9 121.752L1353.06 179.928" stroke="#275B6C" stroke-width="1.5"/>
<path d="M1649.9 121.752L1901.98 -75.2562" stroke="#275B6C" stroke-width="1.5"/>
<path d="M1649.9 121.752L1847.9 417.217" stroke="#275B6C" stroke-width="1.5"/>
<path d="M1595.73 684.577L1884.7 689.604" stroke="#275B6C" stroke-width="1.5"/>
<path d="M1595.73 684.577L1530.76 969.774" stroke="#275B6C" stroke-width="1.5"/>
<path d="M1595.73 684.577L1320.38 444.841" stroke="#275B6C" stroke-width="1.5"/>
<path d="M1530.76 969.774L1628.18 1240.91" stroke="#275B6C" stroke-width="1.5"/>
<path d="M1530.76 969.774L1846.34 955.673" stroke="#275B6C" stroke-width="1.5"/>
<path d="M1530.76 969.774L1361.84 664.003" stroke="#275B6C" stroke-width="1.5"/>
<path d="M1530.76 969.774L1863.65 1262.7" stroke="#275B6C" stroke-width="1.5"/>
<path d="M1901.98 -75.2562L1917.4 108.345" stroke="#275B6C" stroke-width="1.5"/>
<path d="M1917.4 108.345L2112.68 171.741" stroke="#275B6C" stroke-width="1.5"/>
<path d="M1847.9 417.217L1884.7 689.604" stroke="#275B6C" stroke-width="1.5"/>
<path d="M1847.9 417.217L1917.4 108.345" stroke="#275B6C" stroke-width="1.5"/>
<path d="M1884.7 689.604L1846.34 955.673" stroke="#275B6C" stroke-width="1.5"/>
<path d="M1884.7 689.604L2239.43 782.763" stroke="#275B6C" stroke-width="1.5"/>
<path d="M1884.7 689.604L2141.76 980.6" stroke="#275B6C" stroke-width="1.5"/>
<path d="M1884.7 689.604L1530.76 969.774" stroke="#275B6C" stroke-width="1.5"/>
<path d="M1846.34 955.673L2141.76 980.6" stroke="#275B6C" stroke-width="1.5"/>
<path d="M1846.34 955.673L1863.65 1262.7" stroke="#275B6C" stroke-width="1.5"/>
<path d="M1863.65 1262.7L2141.76 980.6" stroke="#275B6C" stroke-width="1.5"/>
<path d="M2136.27 -181.899L1917.4 108.345" stroke="#275B6C" stroke-width="1.5"/>
<path d="M2112.68 171.741L1901.98 -75.2562" stroke="#275B6C" stroke-width="1.5"/>
<path d="M2251.87 375.897L1847.9 417.217" stroke="#275B6C" stroke-width="1.5"/>
<path d="M2251.87 375.897L1917.4 108.345" stroke="#275B6C" stroke-width="1.5"/>
<path d="M2251.87 375.897L1884.7 689.604" stroke="#275B6C" stroke-width="1.5"/>
<path d="M2239.43 782.763L1846.34 955.673" stroke="#275B6C" stroke-width="1.5"/>
<path d="M2141.76 980.6L1628.18 1240.91" stroke="#275B6C" stroke-width="1.5"/>
<path d="M2123.26 1360.44L1846.34 955.673" stroke="#275B6C" stroke-width="1.5"/>
<path d="M2123.26 1360.44L1530.76 969.774" stroke="#275B6C" stroke-width="1.5"/>
<path d="M143.181 709.735C148.498 709.735 152.809 705.423 152.809 700.103C152.809 694.784 148.498 690.471 143.181 690.471C137.863 690.471 133.552 694.784 133.552 700.103C133.552 705.423 137.863 709.735 143.181 709.735Z" fill="#275B6C"/>
<path d="M117.723 982.623C123.041 982.623 127.352 978.31 127.352 972.991C127.352 967.671 123.041 963.359 117.723 963.359C112.406 963.359 108.095 967.671 108.095 972.991C108.095 978.31 112.406 982.623 117.723 982.623Z" fill="#275B6C"/>
<path d="M466.274 411.13C471.591 411.13 475.902 406.818 475.902 401.498C475.902 396.179 471.591 391.866 466.274 391.866C460.956 391.866 456.645 396.179 456.645 401.498C456.645 406.818 460.956 411.13 466.274 411.13Z" fill="#275B6C"/>
<path d="M502.747 715.726C508.064 715.726 512.375 711.414 512.375 706.094C512.375 700.775 508.064 696.462 502.747 696.462C497.429 696.462 493.118 700.775 493.118 706.094C493.118 711.414 497.429 715.726 502.747 715.726Z" fill="#275B6C"/>
<path d="M743.092 458.018C748.41 458.018 752.721 453.705 752.721 448.386C752.721 443.066 748.41 438.754 743.092 438.754C737.775 438.754 733.464 443.066 733.464 448.386C733.464 453.705 737.775 458.018 743.092 458.018Z" fill="#275B6C"/>
<path d="M800.786 733.14C806.104 733.14 810.414 728.828 810.414 723.508C810.414 718.189 806.104 713.876 800.786 713.876C795.468 713.876 791.157 718.189 791.157 723.508C791.157 728.828 795.468 733.14 800.786 733.14Z" fill="#275B6C"/>
<path d="M778.005 1091.94C783.323 1091.94 787.634 1087.63 787.634 1082.31C787.634 1076.99 783.323 1072.68 778.005 1072.68C772.688 1072.68 768.377 1076.99 768.377 1082.31C768.377 1087.63 772.688 1091.94 778.005 1091.94Z" fill="#275B6C"/>
<path d="M1072.25 175.787C1077.57 175.787 1081.88 171.474 1081.88 166.155C1081.88 160.835 1077.57 156.523 1072.25 156.523C1066.93 156.523 1062.62 160.835 1062.62 166.155C1062.62 171.474 1066.93 175.787 1072.25 175.787Z" fill="#275B6C"/>
<path d="M1096.26 456.014C1101.58 456.014 1105.89 451.702 1105.89 446.382C1105.89 441.063 1101.58 436.751 1096.26 436.751C1090.95 436.751 1086.64 441.063 1086.64 446.382C1086.64 451.702 1090.95 456.014 1096.26 456.014Z" fill="#275B6C"/>
<path d="M1090.49 786.134C1095.81 786.134 1100.12 781.822 1100.12 776.502C1100.12 771.183 1095.81 766.871 1090.49 766.871C1085.17 766.871 1080.86 771.183 1080.86 776.502C1080.86 781.822 1085.17 786.134 1090.49 786.134Z" fill="#275B6C"/>
<path d="M1006.28 1071.7C1011.59 1071.7 1015.91 1067.38 1015.91 1062.07C1015.91 1056.75 1011.59 1052.43 1006.28 1052.43C1000.96 1052.43 996.649 1056.75 996.649 1062.07C996.649 1067.38 1000.96 1071.7 1006.28 1071.7Z" fill="#275B6C"/>
<path d="M1353.06 189.56C1358.37 189.56 1362.68 185.248 1362.68 179.928C1362.68 174.609 1358.37 170.297 1353.06 170.297C1347.74 170.297 1343.43 174.609 1343.43 179.928C1343.43 185.248 1347.74 189.56 1353.06 189.56Z" fill="#275B6C"/>
<path d="M1320.38 454.473C1325.69 454.473 1330.01 450.161 1330.01 444.841C1330.01 439.522 1325.69 435.209 1320.38 435.209C1315.06 435.209 1310.75 439.522 1310.75 444.841C1310.75 450.161 1315.06 454.473 1320.38 454.473Z" fill="#275B6C"/>
<path d="M1361.84 673.635C1367.16 673.635 1371.47 669.322 1371.47 664.003C1371.47 658.684 1367.16 654.371 1361.84 654.371C1356.52 654.371 1352.21 658.684 1352.21 664.003C1352.21 669.322 1356.52 673.635 1361.84 673.635Z" fill="#275B6C"/>
<path d="M1294.55 977.499C1299.87 977.499 1304.18 973.186 1304.18 967.867C1304.18 962.547 1299.87 958.235 1294.55 958.235C1289.24 958.235 1284.93 962.547 1284.93 967.867C1284.93 973.186 1289.24 977.499 1294.55 977.499Z" fill="#275B6C"/>
<path d="M1649.9 131.384C1655.22 131.384 1659.53 127.072 1659.53 121.753C1659.53 116.433 1655.22 112.121 1649.9 112.121C1644.58 112.121 1640.27 116.433 1640.27 121.753C1640.27 127.072 1644.58 131.384 1649.9 131.384Z" fill="#275B6C"/>
<path d="M1595.73 694.208C1601.05 694.208 1605.36 689.896 1605.36 684.577C1605.36 679.257 1601.05 674.945 1595.73 674.945C1590.41 674.945 1586.1 679.257 1586.1 684.577C1586.1 689.896 1590.41 694.208 1595.73 694.208Z" fill="#275B6C"/>
<path d="M1530.76 979.406C1536.08 979.406 1540.39 975.093 1540.39 969.774C1540.39 964.454 1536.08 960.142 1530.76 960.142C1525.44 960.142 1521.13 964.454 1521.13 969.774C1521.13 975.093 1525.44 979.406 1530.76 979.406Z" fill="#275B6C"/>
<path d="M1917.4 117.977C1922.72 117.977 1927.03 113.665 1927.03 108.345C1927.03 103.026 1922.72 98.7133 1917.4 98.7133C1912.08 98.7133 1907.77 103.026 1907.77 108.345C1907.77 113.665 1912.08 117.977 1917.4 117.977Z" fill="#275B6C"/>
<path d="M1847.9 426.849C1853.22 426.849 1857.53 422.537 1857.53 417.217C1857.53 411.898 1853.22 407.586 1847.9 407.586C1842.58 407.586 1838.27 411.898 1838.27 417.217C1838.27 422.537 1842.58 426.849 1847.9 426.849Z" fill="#275B6C"/>
<path d="M1884.7 699.236C1890.02 699.236 1894.33 694.924 1894.33 689.604C1894.33 684.285 1890.02 679.973 1884.7 679.973C1879.38 679.973 1875.07 684.285 1875.07 689.604C1875.07 694.924 1879.38 699.236 1884.7 699.236Z" fill="#275B6C"/>
<path d="M1846.34 965.305C1851.66 965.305 1855.97 960.992 1855.97 955.673C1855.97 950.353 1851.66 946.041 1846.34 946.041C1841.02 946.041 1836.71 950.353 1836.71 955.673C1836.71 960.992 1841.02 965.305 1846.34 965.305Z" fill="#275B6C"/>
<path d="M681.162 685.405L393.771 768.373" stroke="#245465" stroke-width="1.5"/>
<path d="M681.162 685.405L1010.26 723.027" stroke="#245465" stroke-width="1.5"/>
<path d="M-147.849 1030.32L194.096 951.493" stroke="#245465" stroke-width="1.5"/>
<path d="M-72.805 1312.09L194.096 951.493" stroke="#245465" stroke-width="1.5"/>
<path d="M194.096 951.493L393.771 768.373" stroke="#245465" stroke-width="1.5"/>
<path d="M194.096 951.493L498.029 978.423" stroke="#245465" stroke-width="1.5"/>
<path d="M155.486 1294.6L194.096 951.493" stroke="#245465" stroke-width="1.5"/>
<path d="M155.486 1294.6L-147.849 1030.32" stroke="#245465" stroke-width="1.5"/>
<path d="M393.771 768.373L498.028 978.423" stroke="#245465" stroke-width="1.5"/>
<path d="M393.771 768.373L503.016 1310.12" stroke="#245465" stroke-width="1.5"/>
<path d="M393.771 768.373L155.486 1294.6" stroke="#245465" stroke-width="1.5"/>
<path d="M393.771 768.373L-147.849 1030.32" stroke="#245465" stroke-width="1.5"/>
<path d="M498.028 978.423L503.016 1310.12" stroke="#245465" stroke-width="1.5"/>
<path d="M498.028 978.423L681.162 685.405" stroke="#245465" stroke-width="1.5"/>
<path d="M498.028 978.423L757.207 1273.66" stroke="#245465" stroke-width="1.5"/>
<path d="M503.016 1310.12L194.096 951.493" stroke="#245465" stroke-width="1.5"/>
<path d="M1010.26 723.027L1283.73 773.035" stroke="#245465" stroke-width="1.5"/>
<path d="M1010.26 723.027L1063.12 1000.38" stroke="#245465" stroke-width="1.5"/>
<path d="M1063.12 1000.38L1304.51 1051.18" stroke="#245465" stroke-width="1.5"/>
<path d="M1021.2 1265.37L1063.12 1000.38" stroke="#245465" stroke-width="1.5"/>
<path d="M1021.2 1265.37L1304.51 1051.18" stroke="#245465" stroke-width="1.5"/>
<path d="M1021.2 1265.37L1010.26 723.027" stroke="#245465" stroke-width="1.5"/>
<path d="M1383.77 485.661L1612.08 408.395" stroke="#245465" stroke-width="1.5"/>
<path d="M1383.77 485.661L1283.73 773.035" stroke="#245465" stroke-width="1.5"/>
<path d="M1383.77 485.661L1641.16 728.864" stroke="#245465" stroke-width="1.5"/>
<path d="M1283.73 773.035L1304.51 1051.18" stroke="#245465" stroke-width="1.5"/>
<path d="M1283.73 773.035L1063.12 1000.38" stroke="#245465" stroke-width="1.5"/>
<path d="M1283.73 773.035L1555.79 992.909" stroke="#245465" stroke-width="1.5"/>
<path d="M1304.51 1051.18L1555.79 992.909" stroke="#245465" stroke-width="1.5"/>
<path d="M1304.51 1051.18L1010.26 723.027" stroke="#245465" stroke-width="1.5"/>
<path d="M1577.21 -124.224L1559.03 168.582" stroke="#245465" stroke-width="1.5"/>
<path d="M1577.21 -124.224L1858.11 146.949" stroke="#245465" stroke-width="1.5"/>
<path d="M1559.03 168.582L1612.08 408.395" stroke="#245465" stroke-width="1.5"/>
<path d="M1559.03 168.582L1858.11 146.949" stroke="#245465" stroke-width="1.5"/>
<path d="M1559.03 168.582L1383.77 485.661" stroke="#245465" stroke-width="1.5"/>
<path d="M1559.03 168.582L1908.29 463.546" stroke="#245465" stroke-width="1.5"/>
<path d="M1641.16 728.864L1890 724.433" stroke="#245465" stroke-width="1.5"/>
<path d="M1641.16 728.864L1555.79 992.909" stroke="#245465" stroke-width="1.5"/>
<path d="M1641.16 728.864L1612.08 408.395" stroke="#245465" stroke-width="1.5"/>
<path d="M1955.41 -193.881L1858.11 146.949" stroke="#245465" stroke-width="1.5"/>
<path d="M1858.11 146.949L1908.29 463.546" stroke="#245465" stroke-width="1.5"/>
<path d="M1858.11 146.949L2180.93 210.5" stroke="#245465" stroke-width="1.5"/>
<path d="M1908.29 463.546L2148.87 500.648" stroke="#245465" stroke-width="1.5"/>
<path d="M1908.29 463.546L1890 724.433" stroke="#245465" stroke-width="1.5"/>
<path d="M1908.29 463.546L1612.08 408.395" stroke="#245465" stroke-width="1.5"/>
<path d="M1890 724.433L1936.83 997.321" stroke="#245465" stroke-width="1.5"/>
<path d="M1890 724.433L2148.87 500.648" stroke="#245465" stroke-width="1.5"/>
<path d="M1851.06 1317.96L1936.83 997.321" stroke="#245465" stroke-width="1.5"/>
<path d="M1851.06 1317.96L1555.79 992.909" stroke="#245465" stroke-width="1.5"/>
<path d="M1851.06 1317.96L2241.74 957.541" stroke="#245465" stroke-width="1.5"/>
<path d="M1851.06 1317.96L1890 724.433" stroke="#245465" stroke-width="1.5"/>
<path d="M2180.93 210.5L1908.29 463.546" stroke="#245465" stroke-width="1.5"/>
<path d="M681.162 733.564C707.75 733.564 729.304 712.002 729.304 685.405C729.304 658.807 707.75 637.246 681.162 637.246C654.574 637.246 633.02 658.807 633.02 685.405C633.02 712.002 654.574 733.564 681.162 733.564Z" fill="url(#paint0_radial_1008_400)"/>
<path d="M194.096 961.125C199.414 961.125 203.725 956.812 203.725 951.493C203.725 946.173 199.414 941.861 194.096 941.861C188.779 941.861 184.468 946.173 184.468 951.493C184.468 956.812 188.779 961.125 194.096 961.125Z" fill="#8EA0A7"/>
<path d="M393.771 778.005C399.089 778.005 403.4 773.693 403.4 768.373C403.4 763.054 399.089 758.741 393.771 758.741C388.454 758.741 384.143 763.054 384.143 768.373C384.143 773.693 388.454 778.005 393.771 778.005Z" fill="#8EA0A7"/>
<path d="M498.029 988.055C503.346 988.055 507.657 983.743 507.657 978.423C507.657 973.104 503.346 968.791 498.029 968.791C492.711 968.791 488.4 973.104 488.4 978.423C488.4 983.743 492.711 988.055 498.029 988.055Z" fill="#8EA0A7"/>
<path d="M1010.26 732.659C1015.58 732.659 1019.89 728.346 1019.89 723.027C1019.89 717.707 1015.58 713.395 1010.26 713.395C1004.95 713.395 1000.63 717.707 1000.63 723.027C1000.63 728.346 1004.95 732.659 1010.26 732.659Z" fill="#8EA0A7"/>
<path d="M1063.12 1010.02C1068.44 1010.02 1072.75 1005.7 1072.75 1000.38C1072.75 995.064 1068.44 990.752 1063.12 990.752C1057.81 990.752 1053.5 995.064 1053.5 1000.38C1053.5 1005.7 1057.81 1010.02 1063.12 1010.02Z" fill="#8EA0A7"/>
<path d="M1383.77 495.293C1389.09 495.293 1393.4 490.98 1393.4 485.661C1393.4 480.341 1389.09 476.029 1383.77 476.029C1378.45 476.029 1374.14 480.341 1374.14 485.661C1374.14 490.98 1378.45 495.293 1383.77 495.293Z" fill="#8EA0A7"/>
<path d="M1283.73 782.667C1289.05 782.667 1293.36 778.354 1293.36 773.035C1293.36 767.715 1289.05 763.403 1283.73 763.403C1278.41 763.403 1274.1 767.715 1274.1 773.035C1274.1 778.354 1278.41 782.667 1283.73 782.667Z" fill="#8EA0A7"/>
<path d="M1304.51 1060.81C1309.83 1060.81 1314.14 1056.5 1314.14 1051.18C1314.14 1045.86 1309.83 1041.55 1304.51 1041.55C1299.19 1041.55 1294.88 1045.86 1294.88 1051.18C1294.88 1056.5 1299.19 1060.81 1304.51 1060.81Z" fill="#8EA0A7"/>
<path d="M1559.03 178.214C1564.35 178.214 1568.66 173.902 1568.66 168.582C1568.66 163.263 1564.35 158.95 1559.03 158.95C1553.71 158.95 1549.4 163.263 1549.4 168.582C1549.4 173.902 1553.71 178.214 1559.03 178.214Z" fill="#8EA0A7"/>
<path d="M1612.08 418.026C1617.4 418.026 1621.71 413.714 1621.71 408.395C1621.71 403.075 1617.4 398.763 1612.08 398.763C1606.76 398.763 1602.45 403.075 1602.45 408.395C1602.45 413.714 1606.76 418.026 1612.08 418.026Z" fill="#8EA0A7"/>
<path d="M1641.16 738.495C1646.48 738.495 1650.79 734.183 1650.79 728.863C1650.79 723.544 1646.48 719.232 1641.16 719.232C1635.84 719.232 1631.53 723.544 1631.53 728.863C1631.53 734.183 1635.84 738.495 1641.16 738.495Z" fill="#8EA0A7"/>
<path d="M1555.79 1002.54C1561.11 1002.54 1565.42 998.229 1565.42 992.909C1565.42 987.59 1561.11 983.278 1555.79 983.278C1550.48 983.278 1546.16 987.59 1546.16 992.909C1546.16 998.229 1550.48 1002.54 1555.79 1002.54Z" fill="#8EA0A7"/>
<path d="M1858.11 156.581C1863.43 156.581 1867.74 152.269 1867.74 146.949C1867.74 141.63 1863.43 137.317 1858.11 137.317C1852.79 137.317 1848.48 141.63 1848.48 146.949C1848.48 152.269 1852.79 156.581 1858.11 156.581Z" fill="#8EA0A7"/>
<path d="M1908.29 473.178C1913.61 473.178 1917.92 468.866 1917.92 463.546C1917.92 458.227 1913.61 453.914 1908.29 453.914C1902.97 453.914 1898.66 458.227 1898.66 463.546C1898.66 468.866 1902.97 473.178 1908.29 473.178Z" fill="#8EA0A7"/>
</g>
</g>
<mask id="mask1_1008_400" style="mask-type:luminance" maskUnits="userSpaceOnUse" x="645" y="400" width="631" height="726">
<path d="M1275.91 400H645.057V1125.49H1275.91V400Z" fill="white"/>
</mask>
<g mask="url(#mask1_1008_400)">
<path d="M1236.49 526.171H684.486V778.514H1236.49V526.171Z" fill="#374E67"/>
<path d="M672.385 399.998C662.214 399.998 655.346 456.36 650.855 510.364C648.345 540.38 643.06 626.105 645.834 719.562C651.155 790.624 653.946 869.383 673.442 935.053C713.73 1069.67 831.557 1106.5 873.958 1117.12C901.719 1123.33 929.682 1126.3 960.479 1125.24C994.108 1126.29 1018.58 1121.87 1047 1117.12C1089.27 1106.5 1207.1 1069.67 1247.52 935.053C1265.95 866.365 1274.36 791.628 1275.12 719.562C1277.9 625.973 1272.61 540.38 1270.1 510.364C1265.61 456.229 1258.74 399.998 1248.57 399.998C1238.4 399.998 1199.7 410.09 1152.01 466.453C1088.48 428.178 960.479 425.95 960.479 425.95C960.479 425.95 832.482 428.179 768.945 466.453C721.26 410.09 682.686 399.998 672.383 399.998H672.385ZM806.987 549.164C865.636 549.164 913.19 596.351 913.19 654.55C913.19 712.748 865.636 759.935 806.987 759.935C748.338 759.935 700.785 712.748 700.785 654.55C700.785 596.351 748.338 549.164 806.987 549.164ZM1113.97 549.164C1172.62 549.164 1220.17 596.351 1220.17 654.55C1220.17 712.748 1172.62 759.935 1113.97 759.935C1055.32 759.935 1007.77 712.748 1007.77 654.55C1007.77 596.351 1055.32 549.164 1113.97 549.164ZM960.413 653.716C962.988 653.7 965.564 653.961 968.14 654.55C977.65 656.648 992.577 660.974 992.577 668.053C992.577 676.311 984.389 701.869 971.707 724.677C969.462 728.74 965.103 731.23 960.479 731.23C955.856 731.23 951.497 728.74 949.252 724.677C936.439 701.869 928.38 676.311 928.38 668.053C928.38 660.975 943.174 656.648 952.685 654.55C955.261 654.026 957.837 653.732 960.413 653.716Z" fill="#193F5D"/>
<path d="M822.718 606.313C784.411 606.313 753.369 637.116 753.369 675.128C753.369 713.14 784.411 743.943 822.718 743.943C861.024 743.943 892.066 713.14 892.066 675.128C892.066 637.116 861.024 606.313 822.718 606.313ZM795.242 660.316C786.26 660.316 778.863 653.107 778.863 644.063C778.863 635.15 786.128 627.809 795.242 627.809C804.225 627.809 811.622 635.018 811.622 644.063C811.49 653.107 804.225 660.316 795.242 660.316Z" fill="#193F5D"/>
<path d="M1094.04 606.313C1055.73 606.313 1024.69 637.116 1024.69 675.128C1024.69 713.14 1055.73 743.943 1094.04 743.943C1132.34 743.943 1163.38 713.14 1163.38 675.128C1163.25 637.116 1132.34 606.313 1094.04 606.313ZM1063.66 660.316C1054.67 660.316 1047.28 653.107 1047.28 644.063C1047.28 635.15 1054.54 627.809 1063.66 627.809C1072.64 627.809 1080.03 635.018 1080.03 644.063C1079.9 653.107 1072.64 660.316 1063.66 660.316Z" fill="#193F5D"/>
</g>
<path d="M574.102 1231.75L956.679 1231.77V1231.8H960.486L1346.89 1231.77C1346.89 1231.77 1346.89 1231.77 1346.9 1231.77C1353.43 1231.8 1358.63 1230.23 1362.47 1226.14C1366.11 1222.27 1368 1216.65 1369.36 1209.94L1369.4 1209.76L1369.41 1209.57L1413.77 777.422L1413.81 777.104L1413.79 776.786C1413.18 767.495 1411.33 759.895 1406.31 754.158C1401.29 748.42 1393.68 745.192 1383.08 743.236L1382.74 743.173H1382.39H538.6H538.252L537.911 743.236C527.319 745.192 519.702 748.42 514.684 754.158C509.667 759.894 507.819 767.493 507.21 776.784L507.189 777.103L507.222 777.42L551.579 1209.55L551.598 1209.73L551.635 1209.91C552.993 1216.63 554.879 1222.24 558.518 1226.12C562.359 1230.21 567.562 1231.77 574.095 1231.75C574.097 1231.75 574.1 1231.75 574.102 1231.75Z" fill="#12314C" stroke="#374E67" stroke-width="7.59616"/>
<path d="M960.486 1054.51C999.682 1054.51 1031.46 1026.27 1031.46 991.428C1031.46 956.587 999.682 928.342 960.486 928.342C921.29 928.342 889.515 956.587 889.515 991.428C889.515 1026.27 921.29 1054.51 960.486 1054.51Z" fill="#193F5D"/>
<path d="M942.808 1019.85L969.889 959.618C970.344 958.612 971.185 957.809 972.241 957.373C973.296 956.937 974.486 956.902 975.568 957.273C976.65 957.645 977.543 958.396 978.064 959.372C978.584 960.349 978.694 961.478 978.371 962.53L978.19 963.003L951.11 1023.24C950.654 1024.25 949.813 1025.05 948.758 1025.48C947.702 1025.92 946.512 1025.96 945.43 1025.58C944.348 1025.21 943.455 1024.46 942.935 1023.48C942.414 1022.51 942.304 1021.38 942.628 1020.33L942.808 1019.85ZM916.645 988.377L934.71 971.171C935.523 970.4 936.614 969.952 937.761 969.919C938.908 969.885 940.025 970.269 940.886 970.992C941.746 971.714 942.286 972.722 942.395 973.81C942.503 974.898 942.173 975.985 941.472 976.849L941.097 977.253L926.224 991.418L941.097 1005.58C941.915 1006.35 942.393 1007.4 942.432 1008.49C942.471 1009.59 942.069 1010.66 941.307 1011.48C940.545 1012.31 939.482 1012.82 938.334 1012.92C937.187 1013.02 936.042 1012.7 935.135 1012.03L934.71 1011.66L916.645 994.459C915.867 993.718 915.4 992.733 915.331 991.688C915.262 990.642 915.596 989.609 916.27 988.781L916.645 988.377ZM979.875 971.167C980.652 970.426 981.687 969.981 982.785 969.916C983.882 969.85 984.967 970.168 985.836 970.81L986.256 971.167L1004.33 988.377C1005.1 989.118 1005.57 990.103 1005.64 991.148C1005.71 992.194 1005.38 993.227 1004.7 994.055L1004.33 994.463L986.256 1011.65C985.444 1012.42 984.353 1012.87 983.206 1012.9C982.059 1012.93 980.942 1012.55 980.081 1011.83C979.221 1011.1 978.681 1010.1 978.572 1009.01C978.463 1007.92 978.793 1006.83 979.495 1005.97L979.875 1005.56L994.738 991.418L979.866 977.249C979.019 976.442 978.543 975.349 978.543 974.208C978.543 973.067 979.019 971.974 979.866 971.167H979.875Z" fill="#374E67"/>
</g>
<defs>
<radialGradient id="paint0_radial_1008_400" cx="0" cy="0" r="1" gradientUnits="userSpaceOnUse" gradientTransform="translate(681.162 685.405) scale(48.1424 48.159)">
<stop offset="0.1" stop-color="white"/>
<stop offset="0.2" stop-color="#1C414E"/>
<stop offset="1" stop-color="#1C414E" stop-opacity="0"/>
</radialGradient>
<clipPath id="clip0_1008_400">
<rect width="1920" height="1080" fill="white"/>
</clipPath>
</defs>
</svg>
